<?xml version="1.0" encoding="utf-8"?>
<!-- Generator: Adobe Illustrator 24.3.0, SVG Export Plug-In . SVG Version: 6.00 Build 0)  -->
<svg version="1.1" id="Ebene_1" xmlns="http://www.w3.org/2000/svg" xmlns:xlink="http://www.w3.org/1999/xlink" x="0px" y="0px"
	 viewBox="0 0 128 128" style="enable-background:new 0 0 128 128;" xml:space="preserve">
<style type="text/css">
	.st0{fill:#5B6166;}
	.st1{fill:#6EB260;}
	.st2{fill:#6DACA8;}
	.st3{fill:#6EAF88;}
	.st4{fill:#67A2C0;}
	.st5{fill:#B0C03C;}
	.st6{fill:#E4CA00;}
	.st7{fill:#EE713A;}
	.st8{fill:#EAA328;}
</style>
<g id="Ebene_2_1_">
	<g id="Ebene_1-2">
		<path class="st0" d="M59.6,57.1c-2.2,0-4.3,0.4-6.4,1.1c2.4,3.6,1.4,8.5-2.3,10.9c-2.6,1.7-6,1.7-8.6,0c-0.7,2-1.1,4.2-1.1,6.4
			c0,10.1,8.2,18.3,18.4,18.3c10.1,0,18.3-8.2,18.3-18.4C77.9,65.3,69.7,57,59.6,57.1z"/>
		<path class="st1" d="M84.5,38.6l-6.3,10.3c-0.2,0.4-0.7,0.6-1.1,0.4h-0.1c-4.4-1.3-8.8-2.1-13.4-2.4c-0.5,0-0.9-0.5-0.9-1V35.3
			c0-0.6,0.4-1,1-1c0,0,0,0,0,0c5.6,0,11.1,0.6,16.6,1.9c1.2,0.3,2.5,0.6,3.7,1c0.6,0.2,0.9,0.8,0.7,1.3
			C84.6,38.5,84.5,38.6,84.5,38.6z"/>
		<path class="st2" d="M115.3,61.6l-14,3.9c-0.4,0.1-0.8,0-1-0.3c-1.8-2.4-3.9-4.6-6.2-6.5c-0.4-0.4-0.4-1.2,0-1.6
			c0,0,0.1-0.1,0.1-0.1l11.1-7.5c0.4-0.3,0.9-0.2,1.2,0.1c2.4,2.1,4.6,4.3,6.6,6.7c1,1.2,1.9,2.4,2.8,3.6c0.4,0.5,0.3,1.1-0.2,1.5
			C115.5,61.5,115.4,61.6,115.3,61.6z"/>
		<path class="st3" d="M103.1,48.5l-11.2,7.5c-0.3,0.2-0.8,0.2-1.1,0l-0.2-0.2c-3-2.1-6.3-3.9-9.7-5.2c-0.5-0.3-0.7-0.9-0.5-1.4
			c0,0,0-0.1,0.1-0.1l6.3-10.3c0.2-0.4,0.7-0.6,1.1-0.4c3.6,1.3,7,3,10.2,4.9c1.7,1.1,3.4,2.2,5,3.5c0.5,0.4,0.5,1.1,0.1,1.6
			C103.2,48.4,103.2,48.5,103.1,48.5z"/>
		<path class="st4" d="M123,76.6h-15.5c-0.4,0-0.8-0.3-0.9-0.6c-1.1-2.5-2.4-5-3.9-7.3c-0.3-0.5-0.2-1.1,0.3-1.4
			c0.1-0.1,0.2-0.1,0.3-0.1l13.8-3.9c0.4-0.1,0.9,0.1,1.1,0.5c1.8,3.2,4.1,7.9,5.6,11.4c0.2,0.5,0,1.1-0.5,1.4
			C123.3,76.6,123.1,76.6,123,76.6z"/>
		<path class="st5" d="M60.7,35.4v10.3c0,0.6-0.4,1-1,1c0,0,0,0,0,0c-2,0-4,0-6,0.2c-2.6,0.2-5.2,0.6-7.8,1.1l-0.4,0.1
			c-0.4,0.1-0.8-0.1-1-0.4l-5-8.1c-0.3-0.6-0.1-1.2,0.5-1.5c0,0,0,0,0.1,0c1.1-0.4,2.2-0.7,3.3-1.1c3-0.8,6-1.5,9.1-1.9
			c2.4-0.3,4.8-0.6,7.2-0.7C60.2,34.3,60.6,34.8,60.7,35.4C60.7,35.3,60.7,35.4,60.7,35.4z"/>
		<path class="st6" d="M42,47.7c0.3,0.5,0.2,1.1-0.3,1.4c-0.1,0-0.1,0.1-0.2,0.1c-3.5,1.1-6.9,2.6-10,4.5l-1.2,0.8
			c-0.3,0.2-0.8,0.2-1.1,0l-6.9-4.7c-0.5-0.4-0.6-1.1-0.2-1.6c0,0,0.1-0.1,0.1-0.1c1.3-1.1,2.6-2.1,4-3.1c3.1-2.2,6.4-4,9.9-5.5
			c0.5-0.2,1,0,1.2,0.4L42,47.7z"/>
		<path class="st7" d="M12.2,76c1.5-3.1,3.3-6.2,5.3-9c0.3-0.5,0.2-1.1-0.2-1.5c-0.1-0.1-0.2-0.1-0.3-0.1l-6.6-1.9
			c-0.4-0.1-0.9,0.1-1.1,0.5c-1.9,3.6-3.6,7.3-5.1,11.1c-0.2,0.5,0,1.1,0.6,1.3c0.1,0,0.2,0.1,0.4,0.1h6.3
			C11.7,76.6,12.1,76.4,12.2,76z"/>
		<path class="st8" d="M20.1,63.6c2-2.4,4.2-4.5,6.7-6.5c0.4-0.4,0.5-1,0.1-1.5c-0.1-0.1-0.1-0.1-0.2-0.2L20.2,51
			c-0.4-0.3-0.9-0.2-1.2,0.1c-2.3,2.3-4.4,4.8-6.3,7.4c-0.4,0.6-0.8,1.2-1.2,1.8c-0.3,0.5-0.2,1.1,0.3,1.5c0.1,0.1,0.2,0.1,0.3,0.1
			l7.1,2C19.5,64,19.9,63.9,20.1,63.6z"/>
	</g>
</g>
</svg>
