<svg class="ViewMain-svg-height" 
  xmlns="http://www.w3.org/2000/svg" id="Ebene_1" data-name="Ebene 1" viewBox="0 0 32 32">
  <path d="M26.6,5.4a6,6,0,0,0-8.3.1l-.8.8L8.2,15.6h0L7.1,16.9,4,25a2.25,2.25,0,0,0,1.3,3,3.09,3.09,0,0,0,.8.2,1.88,1.88,0,0,0,.8-.2l8.2-3.2,1.3-1.1h0l9.3-9.3.8-.8A5.82,5.82,0,0,0,26.6,5.4ZM6.6,26.9c-.1,0-.3.1-.4.1a1.11,1.11,0,0,1-1.1-1.1.6.6,0,0,1,.1-.4l1.1-2.9,3.2,3.2Zm4.2-1.7-4-4,1.3-3.4,6.1,6.1Zm4.7-1.9L8.8,16.6l9.5-9.5L25,13.8ZM25.7,12.9,19.1,6.3a4.94,4.94,0,0,1,6.7-.2,4.77,4.77,0,0,1-.1,6.8Zm-7.8-1.5a.56.56,0,0,0-.9,0h0l-3.8,3.8a.64.64,0,1,0,.9.9l3.8-3.8a.56.56,0,0,0,0-.9Zm-2.1,7.4a.56.56,0,0,0,.9,0h0L20.5,15a.64.64,0,0,0-.9-.9h0l-3.8,3.8a.63.63,0,0,0,0,.9Z" fill="#afbf3c"/>
</svg>